<svg xmlns="http://www.w3.org/2000/svg" viewBox="0 0 512 512" style="enable-background:new 0 0 512.001 512.001" xml:space="preserve"><circle style="fill:#f95428" cx="256" cy="256" r="246.85"/><path style="fill:#e54728" d="M126.3 385.7c-88.8-88.8-95.8-228.43-21-325.25a249.06 249.06 0 0 0-23.85 21c-96.4 96.4-96.4 252.7 0 349.1s252.7 96.4 349.1 0c7.6-7.6 14.6-15.57 21-23.86-96.82 74.8-236.44 67.8-325.24-21z"/><path style="fill:#e54728" d="M220.79 326.38a9.15 9.15 0 0 1-5.78-16.25 66.14 66.14 0 0 1 41.64-14.7 66.3 66.3 0 0 1 40.13 13.52 9.15 9.15 0 0 1-11.13 14.53 47.9 47.9 0 0 0-29-9.74 47.79 47.79 0 0 0-30.1 10.59 9.12 9.12 0 0 1-5.76 2.05z"/><path d="M256 0C114.84 0 0 114.84 0 256s114.84 256 256 256 256-114.84 256-256S397.16 0 256 0zm0 493.7C124.93 493.7 18.3 387.07 18.3 256S124.93 18.3 256 18.3 493.7 124.93 493.7 256 387.07 493.7 256 493.7z"/><path d="M180.58 229.78c0-3.91-.68-7.67-1.9-11.17 3.65.37 7.47.59 11.47.59 10.6 0 22.42-1.44 35.45-4.99a9.15 9.15 0 0 0-4.8-17.66c-64.94 17.67-93.05-23.64-94.23-25.44a9.15 9.15 0 0 0-15.37 9.95c.3.48 6.44 9.85 19.05 19.16a33.87 33.87 0 0 0-17.37 29.56c0 18.67 15.18 33.85 33.85 33.85s33.85-15.18 33.85-33.85zM260.32 257.02c-45.31 0-85.65 28.19-100.38 70.15a9.15 9.15 0 0 0 17.27 6.06c12.15-34.64 45.56-57.91 83.11-57.91s70.95 23.27 83.1 57.91a9.15 9.15 0 1 0 17.28-6.06c-14.74-41.96-55.07-70.15-100.38-70.15zM398.09 168.46a9.17 9.17 0 0 0-12.65 2.65c-1.16 1.77-29.28 43.11-94.23 25.44a9.15 9.15 0 0 0-4.8 17.66c13.03 3.55 24.84 4.99 35.44 4.99 4 0 7.82-.21 11.48-.59a33.89 33.89 0 0 0 31.95 45.02 33.89 33.89 0 0 0 33.85-33.85 33.87 33.87 0 0 0-17.38-29.56c12.61-9.31 18.75-18.68 19.05-19.16a9.13 9.13 0 0 0-2.71-12.6z"/><circle style="fill:#fff" cx="155.97" cy="225.84" r="9.15"/><circle style="fill:#fff" cx="374.34" cy="225.84" r="9.15"/></svg>